<svg width="1588" height="541" viewBox="0 0 1588 541" fill="none" xmlns="http://www.w3.org/2000/svg">
<g filter="url(#filter0_i_530_295)">
<path d="M303.6 204.4C318.267 204.4 331.133 207.267 342.2 213C353.4 218.733 362 226.933 368 237.6C374.133 248.133 377.2 260.4 377.2 274.4C377.2 288.4 374.133 300.667 368 311.2C362 321.6 353.4 329.667 342.2 335.4C331.133 341.133 318.267 344 303.6 344H254.8V204.4H303.6ZM302.6 320.2C317.267 320.2 328.6 316.2 336.6 308.2C344.6 300.2 348.6 288.933 348.6 274.4C348.6 259.867 344.6 248.533 336.6 240.4C328.6 232.133 317.267 228 302.6 228H282.8V320.2H302.6ZM501.159 286.2C501.159 290.2 500.893 293.8 500.359 297H419.359C420.026 305 422.826 311.267 427.759 315.8C432.693 320.333 438.759 322.6 445.959 322.6C456.359 322.6 463.759 318.133 468.159 309.2H498.359C495.159 319.867 489.026 328.667 479.959 335.6C470.893 342.4 459.759 345.8 446.559 345.8C435.893 345.8 426.293 343.467 417.759 338.8C409.359 334 402.759 327.267 397.959 318.6C393.293 309.933 390.959 299.933 390.959 288.6C390.959 277.133 393.293 267.067 397.959 258.4C402.626 249.733 409.159 243.067 417.559 238.4C425.959 233.733 435.626 231.4 446.559 231.4C457.093 231.4 466.493 233.667 474.759 238.2C483.159 242.733 489.626 249.2 494.159 257.6C498.826 265.867 501.159 275.4 501.159 286.2ZM472.159 278.2C472.026 271 469.426 265.267 464.359 261C459.293 256.6 453.093 254.4 445.759 254.4C438.826 254.4 432.959 256.533 428.159 260.8C423.493 264.933 420.626 270.733 419.559 278.2H472.159ZM567.797 318.2L595.797 233.2H625.597L584.597 344H550.597L509.797 233.2H539.797L567.797 318.2ZM743.123 247.6C743.123 255.067 741.323 262.067 737.723 268.6C734.257 275.133 728.723 280.4 721.123 284.4C713.657 288.4 704.19 290.4 692.723 290.4H669.323V344H641.323V204.4H692.723C703.523 204.4 712.723 206.267 720.323 210C727.923 213.733 733.59 218.867 737.323 225.4C741.19 231.933 743.123 239.333 743.123 247.6ZM691.523 267.8C699.257 267.8 704.99 266.067 708.723 262.6C712.457 259 714.323 254 714.323 247.6C714.323 234 706.723 227.2 691.523 227.2H669.323V267.8H691.523ZM812.203 345.8C801.536 345.8 791.936 343.467 783.403 338.8C774.87 334 768.136 327.267 763.203 318.6C758.403 309.933 756.003 299.933 756.003 288.6C756.003 277.267 758.47 267.267 763.403 258.6C768.47 249.933 775.336 243.267 784.003 238.6C792.67 233.8 802.336 231.4 813.003 231.4C823.67 231.4 833.336 233.8 842.003 238.6C850.67 243.267 857.47 249.933 862.403 258.6C867.47 267.267 870.003 277.267 870.003 288.6C870.003 299.933 867.403 309.933 862.203 318.6C857.136 327.267 850.203 334 841.403 338.8C832.736 343.467 823.003 345.8 812.203 345.8ZM812.203 321.4C817.27 321.4 822.003 320.2 826.403 317.8C830.936 315.267 834.536 311.533 837.203 306.6C839.87 301.667 841.203 295.667 841.203 288.6C841.203 278.067 838.403 270 832.803 264.4C827.336 258.667 820.603 255.8 812.603 255.8C804.603 255.8 797.87 258.667 792.403 264.4C787.07 270 784.403 278.067 784.403 288.6C784.403 299.133 787.003 307.267 792.203 313C797.536 318.6 804.203 321.4 812.203 321.4ZM904.742 220C899.809 220 895.676 218.467 892.342 215.4C889.142 212.2 887.542 208.267 887.542 203.6C887.542 198.933 889.142 195.067 892.342 192C895.676 188.8 899.809 187.2 904.742 187.2C909.676 187.2 913.742 188.8 916.942 192C920.276 195.067 921.942 198.933 921.942 203.6C921.942 208.267 920.276 212.2 916.942 215.4C913.742 218.467 909.676 220 904.742 220ZM918.542 233.2V344H890.542V233.2H918.542ZM1007.61 231.6C1020.81 231.6 1031.47 235.8 1039.61 244.2C1047.74 252.467 1051.81 264.067 1051.81 279V344H1023.81V282.8C1023.81 274 1021.61 267.267 1017.21 262.6C1012.81 257.8 1006.81 255.4 999.206 255.4C991.473 255.4 985.34 257.8 980.806 262.6C976.406 267.267 974.206 274 974.206 282.8V344H946.206V233.2H974.206V247C977.94 242.2 982.673 238.467 988.406 235.8C994.273 233 1000.67 231.6 1007.61 231.6ZM1111.03 256.2V309.8C1111.03 313.533 1111.9 316.267 1113.63 318C1115.5 319.6 1118.57 320.4 1122.83 320.4H1135.83V344H1118.23C1094.63 344 1082.83 332.533 1082.83 309.6V256.2H1069.63V233.2H1082.83V205.8H1111.03V233.2H1135.83V256.2H1111.03Z" fill="white"/>
</g>
<g filter="url(#filter1_i_530_295)">
<path d="M1196.6 282.8L1293.4 240.4V268.6L1225.8 296.4L1293.4 324.2V352.8L1196.6 310.4V282.8ZM1393.93 207.4H1419.73L1331.13 392.6H1305.33L1393.93 207.4ZM1531.38 310.4L1434.58 352.8V324.6L1502.18 296.8L1434.58 269V240.4L1531.38 282.8V310.4Z" fill="#FFC400"/>
</g>
<path d="M754.478 80.8001C747.445 80.1699 740.868 78.7825 735.952 76.8933C733.236 75.8487 731.137 74.6928 729.654 73.4252L728.599 85.1923C728.243 89.1729 739.271 93.4111 753.236 94.6624C767.197 95.9135 778.807 93.7008 779.163 89.7233L780.218 77.9562C778.533 78.9398 776.262 79.7042 773.404 80.2494C768.23 81.2344 761.511 81.4304 754.478 80.8001ZM773.871 87.4544C773.756 88.7357 772.623 89.6822 771.341 89.5673C770.059 89.4524 769.112 88.3196 769.227 87.0382C769.342 85.7568 770.475 84.8104 771.757 84.9253C773.039 85.0401 773.986 86.173 773.871 87.4544ZM752.958 97.7594C745.925 97.1292 739.348 95.7418 734.432 93.8526C731.717 92.8081 729.617 91.6521 728.134 90.3846L727.095 101.983C726.738 105.964 737.767 110.202 751.731 111.453C765.693 112.704 777.302 110.492 777.659 106.514L778.698 94.9156C777.013 95.8991 774.742 96.6635 771.884 97.2087C766.71 98.1937 759.991 98.3897 752.958 97.7594ZM772.351 104.41C772.237 105.692 771.103 106.638 769.821 106.523C768.539 106.409 767.592 105.276 767.707 103.994C767.822 102.713 768.955 101.767 770.237 101.881C771.519 101.996 772.466 103.129 772.351 104.41ZM755.983 64.0034C748.937 63.372 742.341 61.9797 737.413 60.0862C734.731 59.0575 732.65 57.9095 731.156 56.6571L730.119 68.2337C729.762 72.2143 740.791 76.4525 754.755 77.7038C768.717 78.9549 780.326 76.7422 780.683 72.7647L781.72 61.1881C780.027 62.1549 777.776 62.9114 774.954 63.4502C769.767 64.4373 763.032 64.635 755.983 64.0034ZM775.391 70.4954C775.276 71.7767 774.142 72.7233 772.861 72.6084C771.579 72.4935 770.632 71.3607 770.746 70.0793C770.861 68.798 771.995 67.8515 773.276 67.9663C774.558 68.0812 775.505 69.2141 775.391 70.4954ZM731.639 51.2772C731.996 47.2966 743.602 45.0867 757.567 46.3381C771.528 47.5892 782.56 51.8307 782.203 55.8082C781.846 59.7889 770.24 61.9987 756.276 60.7474C742.314 59.4963 731.283 55.2548 731.639 51.2772Z" fill="white" fill-opacity="0.9"/>
<path d="M180.3 468.2V450.1H144V431.1H153.1V422H162.1V413H171.3V403.9H190.5V468.2H180.3ZM154.1 440H180.3V414H172.3V423H163.1V432H154.1V440ZM211.694 468.2V459.2H202.594V413H211.694V403.9H239.894V413H249.094V459.2H239.894V468.2H211.694ZM212.694 458.2H238.894V414H212.694V458.2ZM297.488 468.2V450.1H261.188V431.1H270.288V422H279.288V413H288.488V403.9H307.688V468.2H297.488ZM271.288 440H297.488V414H289.488V423H280.288V432H271.288V440ZM145.105 509.42V486.915H148.64V490.1H151.79V493.25H155.01V502.735H157.81V486.915H161.38V509.42H157.81V506.27H154.66V503.085H151.44V493.6H148.64V509.42H145.105ZM168.798 509.42V506.27H165.613V490.1H168.798V486.915H178.668V490.1H181.888V506.27H178.668V509.42H168.798ZM169.148 505.92H178.318V490.45H169.148V505.92ZM191.772 509.42V490.45H188.972V493.6H185.437V490.1H188.622V486.915H198.492V490.1H201.712V493.6H198.142V490.45H195.342V509.42H191.772ZM212.952 509.42V486.915H226.007V490.1H229.227V493.6H225.657V490.45H216.487V496.435H222.857V499.9H216.487V509.42H212.952ZM235.961 509.42V506.27H232.776V490.1H235.961V486.915H245.831V490.1H249.051V506.27H245.831V509.42H235.961ZM236.311 505.92H245.481V490.45H236.311V505.92ZM256.469 509.42V506.27H253.284V486.915H256.819V505.92H265.989V486.915H269.559V506.27H266.339V509.42H256.469ZM273.791 509.42V486.915H277.326V490.1H280.476V493.25H283.696V502.735H286.496V486.915H290.066V509.42H286.496V506.27H283.346V503.085H280.126V493.6H277.326V509.42H273.791ZM294.299 509.42V486.915H304.204V490.1H307.354V493.25H310.574V503.085H307.354V506.27H304.204V509.42H294.299ZM297.834 505.92H303.854V502.735H307.004V493.6H303.854V490.45H297.834V505.92Z" fill="#FF0000"/>
<path d="M429.345 53.9067L435.368 76.3846C435.57 77.1417 435.317 77.9957 434.679 78.5471C432.657 80.1795 431.541 82.7355 431.744 85.293C431.854 86.8361 432.431 88.3297 433.367 89.5498C433.948 90.2055 434.077 91.16 433.61 91.97L410.001 132.861C409.585 133.581 408.784 133.999 407.891 133.883C402.262 133.033 397.619 138.233 399.073 143.752C400.886 150.519 410.033 151.72 413.532 145.66C414.363 144.22 414.675 142.64 414.579 141.144C414.47 139.601 413.892 138.108 412.957 136.888C412.375 136.232 412.246 135.277 412.714 134.467L436.34 93.5463C437.258 91.9562 439.675 92.2721 440.145 94.023L446.041 116.028C446.256 116.832 445.986 117.716 445.257 118.216C440.727 121.56 441.022 128.531 446.002 131.406C452.062 134.905 459.383 129.291 457.57 122.524C456.898 120.016 454.961 117.898 452.404 117.061C451.932 116.909 451.443 116.786 450.949 116.741C450.051 116.703 449.28 116.098 449.039 115.199L443.219 93.4781C443.021 92.6436 443.309 91.7296 444.084 91.2175C449.536 87.525 448.336 79.072 441.951 77.1057C441.402 76.9486 440.866 76.8387 440.324 76.8063C439.409 76.7979 438.591 76.2056 438.337 75.2591L432.391 53.0652L429.345 53.9067ZM436.378 52.0474L441.97 72.9163C451.724 74.8676 455.033 87.2186 447.562 93.7853L452.715 112.921C460.565 114.773 464.423 123.681 460.387 130.671C457.061 136.431 449.679 138.409 443.919 135.083C436.899 131.03 435.816 121.405 441.689 115.875L437.398 99.9576L416.977 135.329C421.192 142.162 417.684 151.217 409.846 153.292C403.41 155.017 396.81 151.206 395.085 144.77C392.993 136.962 399.051 129.379 407.076 129.613L429.351 91.0316C426.438 86.3092 427.113 80.2193 431.046 76.2493L425.352 55.0018L360.048 72.5L387.5 174.952L489.952 147.5L462.5 45.0481L436.378 52.0474Z" fill="#8A8A8A"/>
<path d="M763.387 406.689C763.28 406.44 763.081 406.241 762.832 406.134C762.584 406.027 762.303 406.019 762.049 406.112L716.182 422.806L697.713 372.062C697.64 371.864 697.51 371.691 697.338 371.566C697.167 371.442 696.963 371.371 696.751 371.362C696.54 371.354 696.33 371.408 696.15 371.519C695.969 371.63 695.825 371.791 695.737 371.984L677.463 411.273C677.111 412.028 677.073 412.891 677.357 413.674L696.257 465.601C696.33 465.8 696.441 465.983 696.585 466.139C696.728 466.294 696.901 466.42 697.094 466.508C697.286 466.597 697.494 466.646 697.706 466.653C697.918 466.661 698.129 466.626 698.327 466.551L744.09 449.894C744.635 449.695 745.135 449.391 745.562 448.998C745.988 448.605 746.333 448.132 746.577 447.606L763.783 409.737C764.043 409.18 764.071 408.542 763.861 407.964L763.396 406.686L763.387 406.689ZM688.092 392.059C688.304 391.588 688.688 391.767 688.938 392.453C689.187 393.13 689.21 393.868 689.002 394.559C688.777 395.023 688.396 394.853 688.143 394.158C687.893 393.484 687.875 392.745 688.092 392.059ZM681.283 414.693L698.185 378.446L713.545 420.648L696.643 456.894L681.283 414.693ZM755.253 420.568C755.337 420.537 755.428 420.531 755.515 420.552C755.602 420.573 755.681 420.619 755.742 420.685C755.802 420.751 755.842 420.833 755.855 420.922C755.869 421.011 755.855 421.101 755.817 421.182L751.137 431.218C751.025 431.46 750.865 431.678 750.668 431.858C750.47 432.038 750.238 432.176 749.986 432.265L738.456 436.461C738.373 436.49 738.284 436.494 738.199 436.473C738.114 436.452 738.037 436.406 737.978 436.342C737.918 436.278 737.879 436.198 737.864 436.112C737.849 436.025 737.86 435.937 737.895 435.857L742.575 425.821C742.686 425.577 742.844 425.358 743.042 425.176C743.239 424.995 743.471 424.855 743.723 424.764L755.253 420.568ZM741.76 422.85L732.544 442.614C732.319 443.11 731.935 443.516 731.452 443.767L730.259 444.202C729.892 444.335 729.783 444.034 730.016 443.534L739.232 423.77C739.459 423.276 739.842 422.871 740.324 422.618L741.517 422.183C741.884 422.05 741.993 422.351 741.76 422.85ZM721.874 439.73C721.507 439.863 721.398 439.562 721.631 439.063L722.39 437.435C722.614 436.935 723.003 436.527 723.491 436.279L724.684 435.844C725.051 435.711 725.157 436.002 724.927 436.511L724.168 438.139C723.942 438.634 723.558 439.039 723.077 439.292L721.874 439.73ZM722.799 441.043L722.043 442.68C721.817 443.173 721.431 443.576 720.948 443.823L719.755 444.258C719.388 444.391 719.282 444.1 719.515 443.6L720.243 441.973C720.472 441.482 720.857 441.08 721.337 440.83L722.531 440.395C722.926 440.252 723.028 440.533 722.799 441.043ZM723.989 435.193C723.614 435.329 723.504 435.029 723.747 434.525L724.506 432.898C724.728 432.405 725.109 432 725.588 431.748L726.791 431.31C727.157 431.177 727.267 431.478 727.033 431.978L726.265 433.609C726.042 434.102 725.661 434.506 725.183 434.758L723.989 435.193ZM727.75 433.068L728.518 431.437C728.741 430.944 729.122 430.54 729.6 430.288L730.803 429.85C731.17 429.717 731.279 430.017 731.046 430.517L730.277 432.148C730.055 432.641 729.674 433.046 729.195 433.298L727.993 433.736C727.626 433.869 727.52 433.578 727.75 433.068ZM730.108 429.198C729.742 429.332 729.632 429.031 729.865 428.531L730.625 426.903C730.851 426.409 731.235 426.004 731.716 425.75L732.909 425.316C733.276 425.183 733.385 425.483 733.152 425.983L732.393 427.611C732.167 428.105 731.783 428.511 731.302 428.764L730.108 429.198ZM729.133 427.425L728.374 429.053C728.151 429.546 727.77 429.95 727.292 430.202L726.089 430.64C725.722 430.773 725.613 430.473 725.846 429.973L726.615 428.342C726.837 427.849 727.218 427.444 727.697 427.192L728.89 426.758C729.273 426.64 729.382 426.94 729.14 427.444L729.133 427.425ZM725.28 428.827L724.566 430.46C724.343 430.953 723.962 431.357 723.483 431.61L722.243 432.061C721.877 432.194 721.767 431.894 722 431.394L722.759 429.766C722.991 429.259 723.389 428.847 723.888 428.6L725.091 428.162C725.411 428.045 725.52 428.346 725.287 428.846L725.28 428.827ZM722.922 432.697C723.288 432.564 723.398 432.865 723.164 433.364L722.412 435.011C722.186 435.505 721.802 435.911 721.321 436.164L720.127 436.598C719.761 436.732 719.651 436.431 719.884 435.931L720.644 434.303C720.87 433.809 721.254 433.404 721.735 433.15L722.922 432.697ZM720.806 437.235C721.172 437.101 721.278 437.392 721.049 437.902L720.29 439.53C720.067 440.022 719.686 440.427 719.208 440.679L718.005 441.117C717.638 441.25 717.529 440.949 717.762 440.45L718.53 438.818C718.75 438.323 719.131 437.918 719.612 437.669L720.806 437.235ZM718.706 441.787C719.073 441.654 719.179 441.945 718.946 442.445L718.181 444.086C717.957 444.576 717.574 444.978 717.095 445.226L715.902 445.66C715.526 445.797 715.42 445.505 715.662 445.002L716.418 443.365C716.642 442.874 717.024 442.473 717.504 442.225L718.706 441.787ZM716.587 446.315C716.954 446.182 717.063 446.482 716.83 446.982L716.071 448.61C715.845 449.104 715.461 449.51 714.979 449.763L713.786 450.197C713.42 450.331 713.31 450.03 713.543 449.53L714.302 447.902C714.529 447.408 714.913 447.003 715.394 446.749L716.587 446.315ZM714.471 450.852C714.838 450.719 714.947 451.02 714.714 451.519L713.955 453.147C713.729 453.642 713.345 454.047 712.864 454.3L711.67 454.734C711.304 454.868 711.194 454.567 711.427 454.067L712.186 452.44C712.413 451.945 712.797 451.54 713.278 451.287L714.471 450.852ZM715.296 452.68L716.086 451.02C716.311 450.524 716.695 450.119 717.178 449.867L718.371 449.433C718.738 449.3 718.847 449.6 718.614 450.1L717.855 451.728C717.627 452.221 717.243 452.626 716.763 452.881L715.532 453.329C715.166 453.462 715.056 453.161 715.29 452.662L715.296 452.68ZM717.646 448.814C717.279 448.947 717.17 448.646 717.403 448.147L718.171 446.515C718.394 446.022 718.775 445.618 719.253 445.366L720.456 444.928C720.823 444.795 720.932 445.095 720.699 445.595L719.931 447.227C719.708 447.719 719.327 448.124 718.848 448.376L717.646 448.814ZM721.415 446.686L722.184 445.055C722.406 444.562 722.787 444.158 723.266 443.906L724.459 443.471C724.826 443.338 724.935 443.638 724.702 444.138L723.943 445.766C723.72 446.259 723.339 446.663 722.861 446.916L721.658 447.353C721.285 447.468 721.175 447.167 721.408 446.667L721.415 446.686ZM723.739 442.808C723.372 442.941 723.266 442.65 723.499 442.15L724.283 440.502C724.511 440.01 724.896 439.608 725.378 439.359L726.581 438.921C726.947 438.788 727.053 439.079 726.82 439.579L726.065 441.216C725.837 441.708 725.452 442.111 724.97 442.359L723.739 442.808ZM725.858 438.28C725.492 438.413 725.382 438.112 725.615 437.612L726.374 435.985C726.594 435.49 726.975 435.084 727.456 434.835L728.659 434.397C729.026 434.264 729.132 434.555 728.902 435.065L728.134 436.696C727.911 437.189 727.53 437.593 727.051 437.845L725.858 438.28ZM729.599 436.162L730.358 434.535C730.583 434.039 730.967 433.633 731.45 433.382L732.643 432.947C733.01 432.814 733.116 433.105 732.886 433.614L732.155 435.232C731.931 435.728 731.547 436.134 731.064 436.385L729.87 436.819C729.504 436.953 729.395 436.652 729.628 436.152L729.599 436.162ZM731.958 432.292C731.592 432.426 731.482 432.125 731.715 431.625L732.474 429.997C732.699 429.506 733.079 429.102 733.556 428.848L734.75 428.413C735.116 428.28 735.226 428.581 734.993 429.081L734.234 430.708C734.007 431.203 733.623 431.608 733.142 431.861L731.958 432.292ZM734.074 427.755C733.698 427.892 733.588 427.591 733.831 427.088L734.59 425.46C734.813 424.967 735.194 424.563 735.672 424.311L736.875 423.873C737.241 423.739 737.351 424.04 737.118 424.54L736.349 426.171C736.127 426.664 735.746 427.069 735.267 427.321L734.074 427.755ZM734.503 423.087C734.275 423.579 733.89 423.981 733.408 424.23L732.224 424.661C731.858 424.794 731.752 424.503 731.985 424.003L732.74 422.366C732.968 421.874 733.353 421.471 733.835 421.223L735.029 420.788C735.395 420.655 735.501 420.946 735.268 421.446L734.503 423.087ZM731.246 422.91L730.5 424.544C730.272 425.036 729.887 425.438 729.405 425.687L728.212 426.121C727.845 426.255 727.739 425.964 727.972 425.464L728.728 423.826C728.956 423.334 729.341 422.932 729.823 422.683L731.016 422.249C731.383 422.115 731.489 422.407 731.256 422.906L731.246 422.91ZM727.393 424.312L726.628 425.953C726.404 426.444 726.022 426.845 725.543 427.093L724.349 427.527C723.983 427.661 723.877 427.369 724.11 426.869L724.875 425.229C725.099 424.738 725.481 424.337 725.961 424.089L727.163 423.651C727.53 423.518 727.636 423.809 727.403 424.309L727.393 424.312ZM723.531 425.718L722.776 427.355C722.548 427.847 722.163 428.25 721.681 428.498L720.497 428.929C720.13 429.063 720.024 428.772 720.257 428.272L721.041 426.624C721.269 426.132 721.654 425.73 722.136 425.481L723.329 425.046C723.668 424.923 723.774 425.215 723.541 425.714L723.531 425.718ZM721.173 429.588C721.539 429.455 721.649 429.755 721.416 430.255L720.656 431.883C720.43 432.377 720.046 432.783 719.565 433.036L718.381 433.467C718.014 433.6 717.905 433.299 718.138 432.8L718.897 431.172C719.124 430.677 719.507 430.272 719.989 430.019L721.173 429.588ZM719.057 434.125C719.433 433.988 719.542 434.289 719.3 434.792L718.55 436.417C718.327 436.91 717.947 437.314 717.468 437.566L716.265 438.004C715.899 438.137 715.789 437.837 716.022 437.337L716.791 435.706C717.014 435.213 717.394 434.808 717.873 434.556L719.057 434.125ZM716.951 438.659C717.317 438.526 717.423 438.817 717.193 439.326L716.425 440.957C716.202 441.45 715.821 441.855 715.343 442.107L714.159 442.538C713.792 442.671 713.683 442.37 713.916 441.871L714.675 440.243C714.894 439.748 715.276 439.342 715.757 439.093L716.951 438.659ZM714.844 443.193C715.211 443.059 715.317 443.351 715.084 443.851L714.328 445.488C714.1 445.98 713.715 446.382 713.233 446.631L712.04 447.066C711.673 447.199 711.567 446.908 711.8 446.408L712.556 444.771C712.784 444.278 713.169 443.876 713.651 443.627L714.844 443.193ZM712.753 447.71C713.12 447.577 713.229 447.878 712.996 448.378L712.209 450.016C711.986 450.509 711.605 450.913 711.127 451.165L709.914 451.606C709.548 451.74 709.439 451.439 709.672 450.939L710.44 449.308C710.663 448.815 711.044 448.411 711.522 448.159L712.753 447.71ZM710.647 452.244C711.013 452.111 711.123 452.412 710.89 452.912L710.121 454.543C709.899 455.036 709.518 455.44 709.039 455.692L707.808 456.14C707.442 456.274 707.332 455.973 707.565 455.473L708.334 453.842C708.556 453.349 708.937 452.944 709.416 452.692L710.647 452.244ZM708.503 456.792C708.869 456.658 708.975 456.95 708.742 457.45L707.987 459.087C707.757 459.578 707.372 459.98 706.892 460.23L705.698 460.665C705.332 460.798 705.226 460.507 705.459 460.007L706.211 458.36C706.437 457.867 706.823 457.464 707.306 457.217L708.503 456.792ZM709.319 458.623L710.073 456.955C710.297 456.464 710.68 456.062 711.159 455.815L712.352 455.38C712.719 455.247 712.825 455.538 712.592 456.038L711.827 457.679C711.603 458.169 711.22 458.571 710.741 458.819L709.51 459.267C709.188 459.405 709.079 459.104 709.274 458.618L709.319 458.623ZM713.181 457.218L713.926 455.552C714.154 455.06 714.539 454.658 715.021 454.409L716.214 453.974C716.581 453.841 716.687 454.132 716.454 454.632L715.698 456.269C715.47 456.762 715.085 457.164 714.603 457.413L713.41 457.847C713.05 457.999 712.941 457.699 713.174 457.199L713.181 457.218ZM717.193 455.757L717.938 454.092C718.166 453.6 718.552 453.197 719.033 452.948L720.227 452.514C720.593 452.381 720.699 452.672 720.466 453.172L719.711 454.809C719.483 455.301 719.098 455.704 718.616 455.952L717.422 456.387C717.034 456.549 716.925 456.249 717.186 455.738L717.193 455.757ZM719.582 451.855C719.207 451.991 719.097 451.691 719.34 451.187L720.099 449.56C720.321 449.067 720.702 448.662 721.181 448.41L722.384 447.973C722.75 447.839 722.86 448.14 722.626 448.64L721.858 450.271C721.635 450.764 721.254 451.168 720.776 451.42L719.582 451.855ZM723.324 449.737L724.083 448.11C724.309 447.615 724.693 447.21 725.175 446.957L726.368 446.522C726.734 446.389 726.844 446.69 726.611 447.19L725.852 448.817C725.625 449.312 725.241 449.717 724.76 449.97L723.529 450.418C723.163 450.552 723.053 450.251 723.286 449.751L723.324 449.737ZM725.683 445.867C725.316 446.001 725.207 445.7 725.44 445.2L726.152 443.589C726.376 443.094 726.761 442.688 727.243 442.437L728.446 441.999C728.813 441.865 728.922 442.166 728.689 442.666L727.93 444.294C727.702 444.787 727.318 445.192 726.838 445.447L725.683 445.867ZM727.789 441.333C727.422 441.467 727.316 441.175 727.549 440.676L728.314 439.035C728.539 438.544 728.921 438.143 729.4 437.895L730.603 437.457C730.969 437.324 731.075 437.615 730.842 438.115L730.077 439.756C729.853 440.246 729.471 440.648 728.992 440.896L727.789 441.333ZM739.252 419.996L738.497 421.633C738.273 422.124 737.89 422.525 737.411 422.773L736.208 423.211C735.842 423.344 735.736 423.053 735.969 422.553L736.734 420.912C736.958 420.422 737.34 420.02 737.82 419.772L739.013 419.338C739.379 419.205 739.485 419.496 739.252 419.996ZM734.869 417.835C735.087 417.342 735.463 416.935 735.938 416.679L737.141 416.242C737.507 416.108 737.617 416.409 737.384 416.909L736.622 418.559C736.399 419.046 736.02 419.446 735.546 419.695L734.343 420.133C733.967 420.27 733.858 419.969 734.1 419.466L734.869 417.835ZM731.935 418.136L733.128 417.702C733.495 417.569 733.604 417.869 733.371 418.369L732.619 420.016C732.391 420.509 732.007 420.914 731.528 421.169L730.334 421.603C729.968 421.736 729.858 421.436 730.091 420.936L730.85 419.308C731.07 418.806 731.452 418.394 731.935 418.136ZM728.045 419.552L729.266 419.108C729.633 418.974 729.742 419.275 729.509 419.775L728.729 421.432C728.502 421.926 728.119 422.331 727.637 422.585L726.472 423.009C726.106 423.142 725.996 422.841 726.229 422.341L726.988 420.714C727.204 420.222 727.575 419.814 728.045 419.552ZM722.339 423.757L723.107 422.126C723.33 421.619 723.719 421.203 724.211 420.948L725.414 420.51C725.78 420.377 725.89 420.677 725.656 421.177L724.895 422.827C724.672 423.32 724.291 423.725 723.813 423.977L722.61 424.414C722.24 424.538 722.131 424.238 722.367 423.747L722.339 423.757ZM718.475 423.812C718.699 423.303 719.092 422.885 719.588 422.631L720.781 422.196C721.147 422.063 721.257 422.363 721.024 422.863L703.354 460.773C703.126 461.265 702.741 461.668 702.259 461.916L701.056 462.354C700.69 462.488 700.584 462.196 700.817 461.696L718.475 423.812Z" fill="black" fill-opacity="0.38"/>
<path d="M1173.99 49.6989C1157.52 46.7957 1141.53 53.0826 1131.28 64.8526L1131.18 64.835L1131.15 65.0042C1125.91 71.0664 1122.19 78.5644 1120.7 87.0121C1116.3 111.986 1133.04 135.898 1158.01 140.301C1182.99 144.705 1206.9 127.961 1211.3 102.988C1215.7 78.014 1198.96 54.1025 1173.99 49.6989ZM1122.53 88.3498L1140.11 91.4509C1139 98.1889 1138.8 104.726 1139.38 110.706L1123.99 107.992C1122.07 101.815 1121.48 95.132 1122.53 88.3498ZM1171.09 71.8732L1174.62 51.8924C1182.51 53.9028 1188.11 62.9624 1190.13 75.2413L1171.09 71.885L1171.09 71.8732ZM1190.43 77.3137C1191.25 83.6812 1191.13 90.8001 1189.92 98.2018L1167.16 94.1889L1170.75 73.8428L1190.43 77.3137ZM1169.12 71.5259L1150.09 68.1696C1156.19 57.3256 1164.55 50.7245 1172.65 51.5333L1169.12 71.5259ZM1168.78 73.4955L1165.19 93.8416L1142.43 89.8288C1143.82 82.4699 1146.15 75.7302 1149.09 70.0246L1168.78 73.4955ZM1140.46 89.4815L1122.87 86.3803C1124.34 79.0356 1127.58 72.4554 1132.07 67.0238L1147.08 69.6699C1144.16 75.4294 1141.85 82.1508 1140.47 89.4829L1140.46 89.4815ZM1142.08 91.7984L1164.84 95.8112L1161.53 114.611L1141.39 111.06C1140.78 105.115 1140.97 98.5684 1142.08 91.7984ZM1161.18 116.581L1157.38 138.108C1149.15 136.018 1143.41 126.232 1141.63 113.134L1161.18 116.581ZM1163.15 116.928L1182.7 120.375C1176.54 132.074 1167.81 139.307 1159.35 138.455L1163.15 116.928ZM1163.5 114.959L1166.81 96.1585L1189.57 100.171C1188.3 106.925 1186.24 113.13 1183.63 118.509L1163.5 114.959ZM1191.54 100.519L1209.13 103.62C1207.79 110.361 1204.95 116.429 1201.03 121.577L1185.64 118.863C1188.22 113.44 1190.26 107.227 1191.54 100.519ZM1191.89 98.5491C1193.09 91.1974 1193.23 84.093 1192.45 77.6698L1207.46 80.3158C1209.82 86.956 1210.62 94.2364 1209.48 101.652L1191.89 98.5491ZM1206.62 78.1367L1192.17 75.5889C1190.73 66.4104 1187.38 58.8303 1182.58 54.2409C1193.62 58.7256 1202.17 67.4726 1206.62 78.1367ZM1164.36 51.0353C1158.28 53.7122 1152.54 59.6837 1148.05 67.8171L1133.6 65.2693C1141.43 56.7685 1152.45 51.4747 1164.36 51.0353ZM1124.71 110.15L1139.6 112.776C1140.88 122.688 1144.35 130.896 1149.42 135.752C1137.8 131.034 1128.93 121.588 1124.71 110.15ZM1167.64 138.965C1174.07 136.14 1180.13 129.613 1184.73 120.733L1199.62 123.359C1191.74 132.663 1180.18 138.502 1167.64 138.965Z" fill="#A89280"/>
<g filter="url(#filter2_i_530_295)">
<path d="M480 504C473.935 504 469 499.065 469 493C469 487.478 473.131 482.792 478.609 482.101L481.819 481.696L482.094 478.473C483.122 466.432 493.403 457 505.5 457C512.708 457 519.419 460.247 523.913 465.908L525.864 468.366L528.716 467.056C530.241 466.355 531.851 466 533.5 466C538.528 466 543.054 469.361 544.507 474.173L545.347 476.958L548.255 477.017C555.283 477.158 561 483.207 561 490.5C561 497.944 555.168 504 548 504H480Z" fill="#003FB5"/>
</g>
<g filter="url(#filter3_i_530_295)">
<path d="M924 80C917.935 80 913 75.065 913 69C913 63.478 917.131 58.792 922.609 58.101L925.819 57.696L926.094 54.473C927.122 42.432 937.403 33 949.5 33C956.708 33 963.419 36.247 967.913 41.908L969.864 44.366L972.716 43.056C974.241 42.355 975.851 42 977.5 42C982.528 42 987.054 45.361 988.507 50.173L989.347 52.958L992.255 53.017C999.283 53.158 1005 59.207 1005 66.5C1005 73.944 999.168 80 992 80H924Z" fill="#003FB5"/>
</g>
<g filter="url(#filter4_i_530_295)">
<path d="M568 169C561.935 169 557 164.065 557 158C557 152.478 561.131 147.792 566.609 147.101L569.819 146.696L570.094 143.473C571.122 131.432 581.403 122 593.5 122C600.708 122 607.419 125.247 611.913 130.908L613.864 133.366L616.716 132.056C618.241 131.355 619.851 131 621.5 131C626.528 131 631.054 134.361 632.507 139.173L633.347 141.958L636.255 142.017C643.283 142.158 649 148.207 649 155.5C649 162.944 643.168 169 636 169H568Z" fill="#003FB5"/>
</g>
<g filter="url(#filter5_i_530_295)">
<path d="M54.9999 273C48.9349 273 43.9999 268.065 43.9999 262C43.9999 256.478 48.1309 251.792 53.6089 251.101L56.8189 250.696L57.0939 247.473C58.1219 235.432 68.4029 226 80.4999 226C87.7079 226 94.4189 229.247 98.9129 234.908L100.864 237.366L103.716 236.056C105.241 235.355 106.851 235 108.5 235C113.528 235 118.054 238.361 119.507 243.173L120.347 245.958L123.255 246.017C130.283 246.158 136 252.207 136 259.5C136 266.944 130.168 273 123 273H54.9999Z" fill="#003FB5"/>
</g>
<g filter="url(#filter6_i_530_295)">
<path d="M1061 472C1054.93 472 1050 467.065 1050 461C1050 455.478 1054.13 450.792 1059.61 450.101L1062.82 449.696L1063.09 446.473C1064.12 434.432 1074.4 425 1086.5 425C1093.71 425 1100.42 428.247 1104.91 433.908L1106.86 436.366L1109.72 435.056C1111.24 434.355 1112.85 434 1114.5 434C1119.53 434 1124.05 437.361 1125.51 442.173L1126.35 444.958L1129.25 445.017C1136.28 445.158 1142 451.207 1142 458.5C1142 465.944 1136.17 472 1129 472H1061Z" fill="#003FB5"/>
</g>
<g filter="url(#filter7_i_530_295)">
<path d="M1466 156C1459.93 156 1455 151.065 1455 145C1455 139.478 1459.13 134.792 1464.61 134.101L1467.82 133.696L1468.09 130.473C1469.12 118.432 1479.4 109 1491.5 109C1498.71 109 1505.42 112.247 1509.91 117.908L1511.86 120.366L1514.72 119.056C1516.24 118.355 1517.85 118 1519.5 118C1524.53 118 1529.05 121.361 1530.51 126.173L1531.35 128.958L1534.25 129.017C1541.28 129.158 1547 135.207 1547 142.5C1547 149.944 1541.17 156 1534 156H1466Z" fill="#003FB5"/>
</g>
<defs>
<filter id="filter0_i_530_295" x="254.8" y="187.2" width="881.033" height="158.6" filterUnits="userSpaceOnUse" color-interpolation-filters="sRGB">
<feFlood flood-opacity="0" result="BackgroundImageFix"/>
<feBlend mode="normal" in="SourceGraphic" in2="BackgroundImageFix" result="shape"/>
<feColorMatrix in="SourceAlpha" type="matrix" values="0 0 0 0 0 0 0 0 0 0 0 0 0 0 0 0 0 0 127 0" result="hardAlpha"/>
<feOffset dx="-1" dy="4"/>
<feComposite in2="hardAlpha" operator="arithmetic" k2="-1" k3="1"/>
<feColorMatrix type="matrix" values="0 0 0 0 0 0 0 0 0 0 0 0 0 0 0 0 0 0 0.25 0"/>
<feBlend mode="normal" in2="shape" result="effect1_innerShadow_530_295"/>
</filter>
<filter id="filter1_i_530_295" x="1196.6" y="206.6" width="335.584" height="186" filterUnits="userSpaceOnUse" color-interpolation-filters="sRGB">
<feFlood flood-opacity="0" result="BackgroundImageFix"/>
<feBlend mode="normal" in="SourceGraphic" in2="BackgroundImageFix" result="shape"/>
<feColorMatrix in="SourceAlpha" type="matrix" values="0 0 0 0 0 0 0 0 0 0 0 0 0 0 0 0 0 0 127 0" result="hardAlpha"/>
<feOffset dx="10" dy="-1"/>
<feGaussianBlur stdDeviation="0.4"/>
<feComposite in2="hardAlpha" operator="arithmetic" k2="-1" k3="1"/>
<feColorMatrix type="matrix" values="0 0 0 0 0.548333 0 0 0 0 0.374694 0 0 0 0 0 0 0 0 1 0"/>
<feBlend mode="normal" in2="shape" result="effect1_innerShadow_530_295"/>
</filter>
<filter id="filter2_i_530_295" x="466" y="457" width="95" height="48" filterUnits="userSpaceOnUse" color-interpolation-filters="sRGB">
<feFlood flood-opacity="0" result="BackgroundImageFix"/>
<feBlend mode="normal" in="SourceGraphic" in2="BackgroundImageFix" result="shape"/>
<feColorMatrix in="SourceAlpha" type="matrix" values="0 0 0 0 0 0 0 0 0 0 0 0 0 0 0 0 0 0 127 0" result="hardAlpha"/>
<feOffset dx="-3" dy="1"/>
<feGaussianBlur stdDeviation="1.5"/>
<feComposite in2="hardAlpha" operator="arithmetic" k2="-1" k3="1"/>
<feColorMatrix type="matrix" values="0 0 0 0 0 0 0 0 0 0 0 0 0 0 0 0 0 0 0.25 0"/>
<feBlend mode="normal" in2="shape" result="effect1_innerShadow_530_295"/>
</filter>
<filter id="filter3_i_530_295" x="910" y="33" width="95" height="48" filterUnits="userSpaceOnUse" color-interpolation-filters="sRGB">
<feFlood flood-opacity="0" result="BackgroundImageFix"/>
<feBlend mode="normal" in="SourceGraphic" in2="BackgroundImageFix" result="shape"/>
<feColorMatrix in="SourceAlpha" type="matrix" values="0 0 0 0 0 0 0 0 0 0 0 0 0 0 0 0 0 0 127 0" result="hardAlpha"/>
<feOffset dx="-3" dy="1"/>
<feGaussianBlur stdDeviation="1.5"/>
<feComposite in2="hardAlpha" operator="arithmetic" k2="-1" k3="1"/>
<feColorMatrix type="matrix" values="0 0 0 0 0 0 0 0 0 0 0 0 0 0 0 0 0 0 0.25 0"/>
<feBlend mode="normal" in2="shape" result="effect1_innerShadow_530_295"/>
</filter>
<filter id="filter4_i_530_295" x="554" y="122" width="95" height="48" filterUnits="userSpaceOnUse" color-interpolation-filters="sRGB">
<feFlood flood-opacity="0" result="BackgroundImageFix"/>
<feBlend mode="normal" in="SourceGraphic" in2="BackgroundImageFix" result="shape"/>
<feColorMatrix in="SourceAlpha" type="matrix" values="0 0 0 0 0 0 0 0 0 0 0 0 0 0 0 0 0 0 127 0" result="hardAlpha"/>
<feOffset dx="-3" dy="1"/>
<feGaussianBlur stdDeviation="1.5"/>
<feComposite in2="hardAlpha" operator="arithmetic" k2="-1" k3="1"/>
<feColorMatrix type="matrix" values="0 0 0 0 0 0 0 0 0 0 0 0 0 0 0 0 0 0 0.25 0"/>
<feBlend mode="normal" in2="shape" result="effect1_innerShadow_530_295"/>
</filter>
<filter id="filter5_i_530_295" x="40.9999" y="226" width="95" height="48" filterUnits="userSpaceOnUse" color-interpolation-filters="sRGB">
<feFlood flood-opacity="0" result="BackgroundImageFix"/>
<feBlend mode="normal" in="SourceGraphic" in2="BackgroundImageFix" result="shape"/>
<feColorMatrix in="SourceAlpha" type="matrix" values="0 0 0 0 0 0 0 0 0 0 0 0 0 0 0 0 0 0 127 0" result="hardAlpha"/>
<feOffset dx="-3" dy="1"/>
<feGaussianBlur stdDeviation="1.5"/>
<feComposite in2="hardAlpha" operator="arithmetic" k2="-1" k3="1"/>
<feColorMatrix type="matrix" values="0 0 0 0 0 0 0 0 0 0 0 0 0 0 0 0 0 0 0.25 0"/>
<feBlend mode="normal" in2="shape" result="effect1_innerShadow_530_295"/>
</filter>
<filter id="filter6_i_530_295" x="1047" y="425" width="95" height="48" filterUnits="userSpaceOnUse" color-interpolation-filters="sRGB">
<feFlood flood-opacity="0" result="BackgroundImageFix"/>
<feBlend mode="normal" in="SourceGraphic" in2="BackgroundImageFix" result="shape"/>
<feColorMatrix in="SourceAlpha" type="matrix" values="0 0 0 0 0 0 0 0 0 0 0 0 0 0 0 0 0 0 127 0" result="hardAlpha"/>
<feOffset dx="-3" dy="1"/>
<feGaussianBlur stdDeviation="1.5"/>
<feComposite in2="hardAlpha" operator="arithmetic" k2="-1" k3="1"/>
<feColorMatrix type="matrix" values="0 0 0 0 0 0 0 0 0 0 0 0 0 0 0 0 0 0 0.25 0"/>
<feBlend mode="normal" in2="shape" result="effect1_innerShadow_530_295"/>
</filter>
<filter id="filter7_i_530_295" x="1452" y="109" width="95" height="48" filterUnits="userSpaceOnUse" color-interpolation-filters="sRGB">
<feFlood flood-opacity="0" result="BackgroundImageFix"/>
<feBlend mode="normal" in="SourceGraphic" in2="BackgroundImageFix" result="shape"/>
<feColorMatrix in="SourceAlpha" type="matrix" values="0 0 0 0 0 0 0 0 0 0 0 0 0 0 0 0 0 0 127 0" result="hardAlpha"/>
<feOffset dx="-3" dy="1"/>
<feGaussianBlur stdDeviation="1.5"/>
<feComposite in2="hardAlpha" operator="arithmetic" k2="-1" k3="1"/>
<feColorMatrix type="matrix" values="0 0 0 0 0 0 0 0 0 0 0 0 0 0 0 0 0 0 0.25 0"/>
<feBlend mode="normal" in2="shape" result="effect1_innerShadow_530_295"/>
</filter>
</defs>
</svg>
