<svg width="50" height="50" viewBox="0 0 50 50" fill="none" xmlns="http://www.w3.org/2000/svg">
<g clip-path="url(#clip0_498_11)">
<path d="M45.3979 31.4102L39.9622 23.6203V21.5166V20.3591V9.90325C39.9622 9.22406 39.697 8.58541 39.2169 8.10624L31.8549 0.743551C31.3748 0.263568 30.7356 0 30.0586 0H7.90264C5.51586 0 3.57495 1.94173 3.57495 4.32769V43.3522C3.57495 45.7381 5.51596 47.6799 7.90264 47.6799H24.1268H28.1714C28.3651 47.9386 28.5701 48.1891 28.8061 48.4137C29.8279 49.3907 31.2042 50 32.7271 50C35.4702 50 32.6001 50 36.2267 50C37.7478 50 39.1275 49.3908 40.1494 48.4137C41.3402 47.2772 41.9161 45.7836 41.9161 44.3105V40.2307C43.5676 39.8826 44.983 38.8185 45.777 37.2965C46.761 35.411 46.6164 33.1552 45.3979 31.4102ZM17.3229 42.2515H8.90324V5.4284H26.795V10.1897C26.795 11.8859 28.1747 13.2663 29.8716 13.2663H34.6337V20.0263H34.6077V20.0302C32.8066 19.988 30.9894 20.7722 29.8279 22.4195L23.5558 31.4101C22.3373 33.1551 22.1924 35.4109 23.1767 37.2965C23.9706 38.8185 25.3859 39.8826 27.0376 40.2307V42.2514H25.9896H17.3229V42.2515ZM41.7875 35.2141C41.5808 35.6078 41.1775 35.8528 40.7348 35.8528H40.7331H37.4156V44.3106C37.4156 44.9661 36.8821 45.4983 36.2282 45.4983H36.2265H32.727H32.7253C32.0711 45.4983 31.5376 44.9661 31.5376 44.3106V35.8528H28.2202H28.2186C27.7759 35.8528 27.3724 35.6078 27.1659 35.2141C26.961 34.8204 26.9902 34.3495 27.2457 33.9849L33.5012 25.0162C33.7241 24.6982 34.0887 24.5087 34.4758 24.5087H34.4776C34.8648 24.5087 35.2292 24.6982 35.452 25.0162L41.7079 33.9849C41.9631 34.3494 41.9924 34.8204 41.7875 35.2141Z" fill="white"/>
</g>
<defs>
<clipPath id="clip0_498_11">
<rect width="50" height="50" fill="white"/>
</clipPath>
</defs>
</svg>
