<svg width="50" height="50" viewBox="0 0 50 50" fill="none" xmlns="http://www.w3.org/2000/svg">
<g clip-path="url(#clip0_507_3)">
<path d="M49.4042 25.4678C49.4042 23.4193 49.238 21.9245 48.8782 20.3743H25.4866V29.6201H39.217C38.9403 31.9178 37.4454 35.3781 34.1235 37.7033L34.0769 38.0128L41.4729 43.7424L41.9853 43.7935C46.6912 39.4474 49.4042 33.0527 49.4042 25.4678Z" fill="#4285F4"/>
<path d="M25.4866 49.8282C32.2133 49.8282 37.8605 47.6135 41.9853 43.7935L34.1235 37.7032C32.0196 39.1704 29.196 40.1946 25.4866 40.1946C18.8983 40.1946 13.3065 35.8486 11.3132 29.8416L11.021 29.8664L3.33052 35.8181L3.22995 36.0977C7.3269 44.2362 15.7424 49.8282 25.4866 49.8282Z" fill="#34A853"/>
<path d="M11.3132 29.8416C10.7872 28.2914 10.4828 26.6303 10.4828 24.9141C10.4828 23.1977 10.7872 21.5368 11.2855 19.9866L11.2716 19.6565L3.48472 13.6091L3.22995 13.7303C1.5414 17.1076 0.57251 20.9002 0.57251 24.9141C0.57251 28.928 1.5414 32.7204 3.22995 36.0977L11.3132 29.8416Z" fill="#FBBC05"/>
<path d="M25.4866 9.6334C30.1649 9.6334 33.3206 11.6542 35.12 13.3429L42.1513 6.47767C37.833 2.46374 32.2133 0 25.4866 0C15.7424 0 7.3269 5.59179 3.22995 13.7303L11.2855 19.9866C13.3065 13.9796 18.8983 9.6334 25.4866 9.6334Z" fill="#EB4335"/>
</g>
<defs>
<clipPath id="clip0_507_3">
<rect width="50" height="50" fill="white"/>
</clipPath>
</defs>
</svg>
