<svg width="51" height="69" viewBox="0 0 51 69" fill="none" xmlns="http://www.w3.org/2000/svg">
<g filter="url(#filter0_d_492_4)">
<path d="M6.048 28.984C7.584 28.824 8.752 28.36 9.552 27.592C10.384 26.824 10.8 25.816 10.8 24.568C10.8 23.416 10.672 21.304 10.416 18.232C10.128 15.352 9.984 13.048 9.984 11.32C9.984 9.048 10.64 7.272 11.952 5.992C13.296 4.712 15.056 4.072 17.232 4.072H20.448V8.824H18.336C17.312 8.824 16.544 9.064 16.032 9.544C15.552 9.992 15.312 10.728 15.312 11.752C15.312 12.52 15.36 13.544 15.456 14.824C15.552 16.104 15.616 17.016 15.648 17.56C15.936 20.504 16.08 22.904 16.08 24.76C16.08 26.392 15.664 27.752 14.832 28.84C14.032 29.928 12.784 30.648 11.088 31V31.096C12.784 31.448 14.032 32.168 14.832 33.256C15.664 34.344 16.08 35.704 16.08 37.336C16.08 39.192 15.936 41.592 15.648 44.536C15.616 45.08 15.552 45.992 15.456 47.272C15.36 48.552 15.312 49.576 15.312 50.344C15.312 51.368 15.552 52.104 16.032 52.552C16.544 53.032 17.312 53.272 18.336 53.272H20.448V58.024H17.232C15.056 58.024 13.296 57.384 11.952 56.104C10.64 54.824 9.984 53.048 9.984 50.776C9.984 49.048 10.128 46.744 10.416 43.864C10.672 40.792 10.8 38.68 10.8 37.528C10.8 36.28 10.384 35.272 9.552 34.504C8.752 33.736 7.584 33.272 6.048 33.112V28.984ZM43.47 33.112C41.934 33.272 40.75 33.736 39.918 34.504C39.118 35.272 38.718 36.28 38.718 37.528C38.718 38.68 38.846 40.792 39.102 43.864C39.39 46.744 39.534 49.048 39.534 50.776C39.534 53.048 38.862 54.824 37.518 56.104C36.206 57.384 34.462 58.024 32.286 58.024H29.07V53.272H31.182C32.206 53.272 32.958 53.032 33.438 52.552C33.95 52.104 34.206 51.368 34.206 50.344C34.206 49.576 34.158 48.552 34.062 47.272C33.966 45.992 33.902 45.08 33.87 44.536C33.582 41.592 33.438 39.192 33.438 37.336C33.438 35.704 33.838 34.344 34.638 33.256C35.47 32.168 36.734 31.448 38.43 31.096V31C36.734 30.648 35.47 29.928 34.638 28.84C33.838 27.752 33.438 26.392 33.438 24.76C33.438 22.904 33.582 20.504 33.87 17.56C33.902 17.016 33.966 16.104 34.062 14.824C34.158 13.544 34.206 12.52 34.206 11.752C34.206 10.728 33.95 9.992 33.438 9.544C32.958 9.064 32.206 8.824 31.182 8.824H29.07V4.072H32.286C34.462 4.072 36.206 4.712 37.518 5.992C38.862 7.272 39.534 9.048 39.534 11.32C39.534 13.048 39.39 15.352 39.102 18.232C38.846 21.304 38.718 23.416 38.718 24.568C38.718 25.816 39.118 26.824 39.918 27.592C40.75 28.36 41.934 28.824 43.47 28.984V33.112Z" fill="#0051FF"/>
</g>
<defs>
<filter id="filter0_d_492_4" x="-3" y="-1" width="57" height="75" filterUnits="userSpaceOnUse" color-interpolation-filters="sRGB">
<feFlood flood-opacity="0" result="BackgroundImageFix"/>
<feColorMatrix in="SourceAlpha" type="matrix" values="0 0 0 0 0 0 0 0 0 0 0 0 0 0 0 0 0 0 127 0" result="hardAlpha"/>
<feOffset dy="2"/>
<feGaussianBlur stdDeviation="1.5"/>
<feComposite in2="hardAlpha" operator="out"/>
<feColorMatrix type="matrix" values="0 0 0 0 0 0 0 0 0 0 0 0 0 0 0 0 0 0 0.25 0"/>
<feBlend mode="normal" in2="BackgroundImageFix" result="effect1_dropShadow_492_4"/>
<feBlend mode="normal" in="SourceGraphic" in2="effect1_dropShadow_492_4" result="shape"/>
</filter>
</defs>
</svg>