<svg width="16" height="23" viewBox="0 0 16 23" fill="none" xmlns="http://www.w3.org/2000/svg">
<g filter="url(#filter0_d_465_141)">
<path d="M3.512 7.996C3.896 7.956 4.188 7.84 4.388 7.648C4.596 7.456 4.7 7.204 4.7 6.892C4.7 6.604 4.668 6.076 4.604 5.308C4.532 4.588 4.496 4.012 4.496 3.58C4.496 3.012 4.66 2.568 4.988 2.248C5.324 1.928 5.764 1.768 6.308 1.768H7.112V2.956H6.584C6.328 2.956 6.136 3.016 6.008 3.136C5.888 3.248 5.828 3.432 5.828 3.688C5.828 3.88 5.84 4.136 5.864 4.456C5.888 4.776 5.904 5.004 5.912 5.14C5.984 5.876 6.02 6.476 6.02 6.94C6.02 7.348 5.916 7.688 5.708 7.96C5.508 8.232 5.196 8.412 4.772 8.5V8.524C5.196 8.612 5.508 8.792 5.708 9.064C5.916 9.336 6.02 9.676 6.02 10.084C6.02 10.548 5.984 11.148 5.912 11.884C5.904 12.02 5.888 12.248 5.864 12.568C5.84 12.888 5.828 13.144 5.828 13.336C5.828 13.592 5.888 13.776 6.008 13.888C6.136 14.008 6.328 14.068 6.584 14.068H7.112V15.256H6.308C5.764 15.256 5.324 15.096 4.988 14.776C4.66 14.456 4.496 14.012 4.496 13.444C4.496 13.012 4.532 12.436 4.604 11.716C4.668 10.948 4.7 10.42 4.7 10.132C4.7 9.82 4.596 9.568 4.388 9.376C4.188 9.184 3.896 9.068 3.512 9.028V7.996ZM12.8675 9.028C12.4835 9.068 12.1875 9.184 11.9795 9.376C11.7795 9.568 11.6795 9.82 11.6795 10.132C11.6795 10.42 11.7115 10.948 11.7755 11.716C11.8475 12.436 11.8835 13.012 11.8835 13.444C11.8835 14.012 11.7155 14.456 11.3795 14.776C11.0515 15.096 10.6155 15.256 10.0715 15.256H9.2675V14.068H9.7955C10.0515 14.068 10.2395 14.008 10.3595 13.888C10.4875 13.776 10.5515 13.592 10.5515 13.336C10.5515 13.144 10.5395 12.888 10.5155 12.568C10.4915 12.248 10.4755 12.02 10.4675 11.884C10.3955 11.148 10.3595 10.548 10.3595 10.084C10.3595 9.676 10.4595 9.336 10.6595 9.064C10.8675 8.792 11.1835 8.612 11.6075 8.524V8.5C11.1835 8.412 10.8675 8.232 10.6595 7.96C10.4595 7.688 10.3595 7.348 10.3595 6.94C10.3595 6.476 10.3955 5.876 10.4675 5.14C10.4755 5.004 10.4915 4.776 10.5155 4.456C10.5395 4.136 10.5515 3.88 10.5515 3.688C10.5515 3.432 10.4875 3.248 10.3595 3.136C10.2395 3.016 10.0515 2.956 9.7955 2.956H9.2675V1.768H10.0715C10.6155 1.768 11.0515 1.928 11.3795 2.248C11.7155 2.568 11.8835 3.012 11.8835 3.58C11.8835 4.012 11.8475 4.588 11.7755 5.308C11.7115 6.076 11.6795 6.604 11.6795 6.892C11.6795 7.204 11.7795 7.456 11.9795 7.648C12.1875 7.84 12.4835 7.956 12.8675 7.996V9.028Z" fill="#FFC700" fill-opacity="0.75" shape-rendering="crispEdges"/>
</g>
<defs>
<filter id="filter0_d_465_141" x="0.512024" y="1.76807" width="15.3555" height="20.488" filterUnits="userSpaceOnUse" color-interpolation-filters="sRGB">
<feFlood flood-opacity="0" result="BackgroundImageFix"/>
<feColorMatrix in="SourceAlpha" type="matrix" values="0 0 0 0 0 0 0 0 0 0 0 0 0 0 0 0 0 0 127 0" result="hardAlpha"/>
<feOffset dy="4"/>
<feGaussianBlur stdDeviation="1.5"/>
<feComposite in2="hardAlpha" operator="out"/>
<feColorMatrix type="matrix" values="0 0 0 0 0 0 0 0 0 0 0 0 0 0 0 0 0 0 0.3 0"/>
<feBlend mode="normal" in2="BackgroundImageFix" result="effect1_dropShadow_465_141"/>
<feBlend mode="normal" in="SourceGraphic" in2="effect1_dropShadow_465_141" result="shape"/>
</filter>
</defs>
</svg>
