<svg width="1728" height="1117" viewBox="0 0 1728 1117" fill="none" xmlns="http://www.w3.org/2000/svg">
<mask id="mask0_547_310" style="mask-type:alpha" maskUnits="userSpaceOnUse" x="0" y="0" width="1728" height="1117">
<rect width="1728" height="1117" fill="black"/>
</mask>
<g mask="url(#mask0_547_310)">
<g filter="url(#filter0_f_547_310)">
<path fill-rule="evenodd" clip-rule="evenodd" d="M1131.56 262.242C1205.37 265.358 1287.22 215.594 1344.76 258.631C1403.65 302.677 1401.72 387.016 1391.35 456.559C1382.38 516.795 1334.56 559.429 1292.95 606.386C1243.78 661.86 1208.7 743.979 1131.56 749.675C1052.93 755.481 999.86 682.33 942.281 632.278C881.519 579.459 803.028 533.418 794.367 456.559C785.154 374.813 822.828 283.124 898.048 239.776C967.165 199.945 1050.29 258.812 1131.56 262.242Z" fill="#FA0808"/>
<path fill-rule="evenodd" clip-rule="evenodd" d="M1185.67 539.779C1217.95 547.605 1251.74 542.942 1282.99 554.233C1316.09 566.191 1355.96 576.323 1372.76 607.374C1390.04 639.313 1355.97 681.513 1369.98 715.029C1388.23 758.702 1465.04 773.394 1461.91 820.657C1459.04 863.903 1388.63 864.876 1358.03 895.423C1331.64 921.77 1327.83 968.019 1295.6 986.683C1263.35 1005.36 1222.08 1002.97 1185.67 995.223C1151.67 987.985 1116.71 972.327 1096.09 944.21C1075.98 916.779 1102.33 866.559 1075.78 845.358C1037.54 814.815 960.146 856.594 934.274 814.959C913.292 781.194 871.157 703.261 887.804 667.139C900.774 638.993 1011.9 655.214 1021.48 625.73C1035.21 583.503 1023.55 521.365 1062.76 500.841C1101.34 480.644 1143.38 529.526 1185.67 539.779Z" fill="#FF8410"/>
<path fill-rule="evenodd" clip-rule="evenodd" d="M625.816 358.084C728.275 360.654 805.298 440.411 839.312 538.018C974.473 748.567 883.358 772.914 794.699 842.722C698.267 918.648 560.794 908.421 462.961 834.344C369.534 763.603 338.857 637.869 376.965 526.422C412.988 421.075 515.458 355.316 625.816 358.084Z" fill="#D3CB0A"/>
</g>
</g>
<defs>
<filter id="filter0_f_547_310" x="-39" y="-174" width="1901" height="1575" filterUnits="userSpaceOnUse" color-interpolation-filters="sRGB">
<feFlood flood-opacity="0" result="BackgroundImageFix"/>
<feBlend mode="normal" in="SourceGraphic" in2="BackgroundImageFix" result="shape"/>
<feGaussianBlur stdDeviation="200" result="effect1_foregroundBlur_547_310"/>
</filter>
</defs>
</svg>
