<svg width="18" height="18" viewBox="0 0 18 18" fill="none" xmlns="http://www.w3.org/2000/svg">
<path d="M18 9V15C18 16.6543 16.6543 18 15 18H3C1.3457 18 0 16.6543 0 15V3C0 1.3457 1.3457 0 3 0H9C9.55273 0 10 0.44775 10 1C10 1.55225 9.55273 2 9 2H3C2.44824 2 2 2.44873 2 3V15C2 15.5513 2.44824 16 3 16H15C15.5518 16 16 15.5513 16 15V9C16 8.44775 16.4473 8 17 8C17.5527 8 18 8.44775 18 9ZM17 0H13C12.4473 0 12 0.44775 12 1C12 1.55225 12.4473 2 13 2H14.5859L5.29297 11.293C4.90235 11.6836 4.90235 12.3164 5.29297 12.707C5.48828 12.9023 5.74414 13 6 13C6.25586 13 6.51172 12.9023 6.70703 12.707L16 3.41406V5C16 5.55225 16.4473 6 17 6C17.5527 6 18 5.55225 18 5V1C18 0.44775 17.5527 0 17 0Z" fill="white"/>
</svg>
