<svg width="50" height="50" viewBox="0 0 50 50" fill="none" xmlns="http://www.w3.org/2000/svg">
<path d="M16.6375 46.1297C16.6375 46.4293 16.8038 46.704 17.0684 46.844C17.3327 46.9839 17.6541 46.966 17.9012 46.7968L23.4658 42.9972L16.6376 39.7427V46.1297H16.6375Z" fill="white"/>
<path d="M49.7403 3.27715C49.5874 3.13624 49.3902 3.0625 49.1908 3.0625C49.0706 3.0625 48.9507 3.08917 48.8372 3.14492L0.798528 26.7092C0.307521 26.9505 -0.00318469 27.4519 0.000148626 28.0004C0.00348194 28.5482 0.31944 29.0462 0.813982 29.2821L13.4747 35.3148L38.7897 14.5079L16.6116 36.8094L32.3837 44.3245C32.5774 44.4173 32.7889 44.4635 32.9982 44.4635C33.1768 44.4635 33.3537 44.4309 33.5221 44.3648C33.8894 44.2195 34.1814 43.9286 34.3271 43.5611L49.9428 4.16744C50.0664 3.85744 49.9858 3.503 49.7403 3.27715Z" fill="white"/>
</svg>
